# xmcd
#
# Track frame offsets:
#	150
#	10750
#	24962
#	34922
#	42975
#	57162
#	73635
#	90833
#	104990
#	120995
#
# Disc length: 1801 seconds
#
# Revision: 1
# Processed by: cddbd v1.5.1PL2 Copyright (c) Steve Scherf et al.
# Submitted via: audiograbber 1.83.01
#
DISCID=7707070a
DTITLE=Perrys - 25 Years... And More
DYEAR=1995
DGENRE=Southern Gospel
TTITLE0=This Ship Was Made To Sail
TTITLE1=I'm Forgiven
TTITLE2=He'll See Me Through
TTITLE3=Delivered Out
TTITLE4=He Won't Leave Us Now
TTITLE5=The Hem Of His Garment
TTITLE6=Joyful Morning
TTITLE7=Prepare To Meet Your Maker
TTITLE8=I'd Do It All Over Again
TTITLE9=I'm So Glad I've Got A Better Place To Go
EXTD=
EXTT0=
EXTT1=
EXTT2=
EXTT3=
EXTT4=
EXTT5=
EXTT6=
EXTT7=
EXTT8=
EXTT9=
PLAYORDER=
